<?xml version="1.0" encoding="UTF-8"?><svg id="a" xmlns="http://www.w3.org/2000/svg" viewBox="0 0 435.07 67.36"><defs><style>.b{fill:#0072bc;}</style></defs><g><path class="b" d="m40.99,45.58c.79,0,.69-.45.69-1.29v-4.1c0-.85-.08-1.11.4-1.11,1.68,0,2.14-.16,2.14-1.66v-15.23c0-4.15-2.93-3.46-3.75-4.97-1.17-2.05,2.19-2.05.97-6.49-.31-1.01-1.1-1.63-2.62-1.63s-2.31.62-2.62,1.63c-1.22,4.44,2.15,4.44.97,6.49-.83,1.52-3.75.83-3.75,4.97v15.23c0,1.5.45,1.66,2.14,1.66.47,0,.4.27.4,1.11v4.1c0,.84-.1,1.29.7,1.29h4.32"/><path class="b" d="m27.66,12.56c-1.5,1.59-3.86,5.31-2.32,8.4,3.14,1.21,2.9-9.95,6.81-9.76,1.93,1.79-.58,7.05-1.36,9.37-.97,2.86-1.74,8.84-3.57,11.74-1.54,2.42-.39,10-.87,12.61-1.3,1.3-4.83.38-6.33.14,0-2.99-.39-5.36-.87-10.14-.05-.96-1.06-15.75-.24-17.53,1.69-3.72,10.92-10.82,12.18-12.17,1.1-1.21,5.02-5.21,6.52-5.21,1.06.73.43,2.41.19,3.09-1.5,3.72-7.97,7.39-10.15,9.47"/><path class="b" d="m50.17,12.56c1.45,1.59,3.82,5.31,2.32,8.4-3.19,1.21-2.94-9.95-6.86-9.76-1.88,1.79.63,7.05,1.4,9.37.97,2.86,1.74,8.84,3.57,11.74,1.5,2.42.39,10,.82,12.61,1.36,1.3,4.83.38,6.38.14,0-2.99.34-5.36.82-10.14.1-.96,1.11-15.75.29-17.53-1.69-3.72-10.91-10.82-12.17-12.17-1.16-1.21-5.03-5.21-6.52-5.21-1.1.73-.43,2.41-.19,3.09,1.5,3.72,7.97,7.39,10.14,9.47"/><path class="b" d="m14.24,7.55c-.82.78-2.67,1.31-3.92,2.99-.48-.91.77-3.14,2.27-4.45,1.11-.92,3.29-2.42,3.92-2.57.49,1.11-1.25,2.81-2.27,4.02"/><path class="b" d="m11.68,13.6c-1.4,1.3-2.9,1.84-4.84,4.21-.82-2.86-.63-5.38-.24-7.07.68-2.22,1.79-4.69,3.68-5.47-.39,1.26-1.02,3-1.17,5.37-.82,3.24-1.31,3.34-1.11,3.77.19,0,1.25-1.7,2.56-3,1.55-1.55,3.48-1.89,4.74-2.81-.19.63-1.3,2.61-3.63,4.98"/><path class="b" d="m4.86,27.01c-1.89-3.39-2.08-5.86-2.23-8.72.1-1.98,1.07-6.58,2.52-7.25-.44,4.16.68,4.55.24,7.98,0,.19-.49,3.78-.49,3.97.58-.1.05-3.29,6.68-7.89-1.44,2.52-.77,3.29-3.39,6.63-3.05,3-3.48,5.95-3.33,5.28"/><path class="b" d="m7.52,30.2c-1.41,2.03-1.17,3.05-1.5,4.01-3.34-1.93-7.11-9.63-5.71-13.45.87,2.9,2.08,3.53,2.95,5.95,1.5,3.63,1.26,4.74,2.23,5.57-.19-1.89.43-4.11,1.07-5.76.92-1.4,1.64-3.24,2.32-3.87.72,2.67.19,4.84-1.36,7.55"/><path class="b" d="m10.52,36.78c0,2.95-.54,4.26-.78,6.43C3.98,41.33.98,34.75.98,31.51c1.75,3.97,4.31,3.92,7.65,9.53.29-2.13-.59-.53-.68-4.55.09-4.21.97-4.36,1.11-6.97,1.07,1.16,1.46,5.81,1.46,7.26"/><path class="b" d="m15.3,45.15c.44,2.18.63,4.75.97,6.63-3.29-1.21-4.12-.29-8.03-2.76-1.79-.97-4.99-5.03-4.79-7.94,3.87,4.31,4.54,3.83,6.43,5.42,1.74,1.41,3.14,3.49,4.41,3.2.09-1.16-2.86-3.68-2.47-10.94.77.82,2.9,4.11,3.48,6.38"/><path class="b" d="m21.84,50.58c1.02,1.45.78,2.08,3.39,5.08-.64.29-4.36,1.26-6.83,1.36-1.64,0-7.45-1.55-9.38-5.52,3.34,1.79,3.39,1.36,7.84,2.32,3.2.73,5.47,1.74,6.34,1.65-.19-.43-2.66-1.45-4.35-3.58-1.7-2.27-1.31-4.84-2.81-6.73,1.02-.29,4.99,4.36,5.81,5.42"/><path class="b" d="m63.31,7.55c.77.78,2.66,1.31,3.87,2.99.53-.91-.77-3.14-2.27-4.45-1.06-.92-3.24-2.42-3.92-2.57-.48,1.11,1.26,2.81,2.33,4.02"/><path class="b" d="m65.88,13.6c1.36,1.3,2.86,1.84,4.79,4.21.83-2.86.63-5.38.25-7.07-.63-2.22-1.79-4.69-3.68-5.47.44,1.26,1.02,3,1.16,5.37.82,3.24,1.31,3.34,1.11,3.77-.19,0-1.26-1.7-2.57-3-1.5-1.55-3.44-1.89-4.74-2.81.19.63,1.36,2.61,3.68,4.98"/><path class="b" d="m72.66,27.01c1.94-3.39,2.07-5.86,2.23-8.72-.1-1.98-1.07-6.58-2.47-7.25.39,4.16-.73,4.55-.24,7.98,0,.19.44,3.78.44,3.97-.53-.1-.05-3.29-6.63-7.89,1.41,2.52.72,3.29,3.34,6.63,3.1,3,3.48,5.95,3.34,5.28"/><path class="b" d="m70.04,30.2c1.36,2.03,1.12,3.05,1.46,4.01,3.34-1.93,7.16-9.63,5.71-13.45-.82,2.9-2.08,3.53-2.9,5.95-1.55,3.63-1.31,4.74-2.23,5.57.19-1.89-.49-4.11-1.11-5.76-.87-1.4-1.64-3.24-2.32-3.87-.68,2.67-.19,4.84,1.4,7.55"/><path class="b" d="m66.99,36.78c0,2.95.58,4.26.82,6.43,5.71-1.88,8.76-8.47,8.76-11.71-1.79,3.97-4.31,3.92-7.7,9.53-.29-2.13.58-.53.68-4.55-.1-4.21-.97-4.36-1.12-6.97-1.06,1.16-1.45,5.81-1.45,7.26"/><path class="b" d="m62.2,45.15c-.44,2.18-.58,4.75-.92,6.63,3.24-1.21,4.07-.29,7.98-2.76,1.79-.97,5.04-5.03,4.84-7.94-3.87,4.31-4.6,3.83-6.43,5.42-1.75,1.41-3.2,3.49-4.46,3.2-.1-1.16,2.86-3.68,2.52-10.94-.82.82-2.95,4.11-3.53,6.38"/><path class="b" d="m55.67,50.58c-.97,1.45-.73,2.08-3.39,5.08.68.29,4.36,1.26,6.87,1.36,1.6,0,7.4-1.55,9.34-5.52-3.33,1.79-3.39,1.36-7.84,2.32-3.2.73-5.42,1.74-6.34,1.65.19-.43,2.7-1.45,4.36-3.58,1.69-2.27,1.3-4.84,2.85-6.73-1.06-.29-5.03,4.36-5.86,5.42"/><path class="b" d="m30.5,64.22l-.97-.48s6.15-7.5,16.7-6.92c10.55.58,9.83,3.05,15.48,2.66.63-.05-.48.78-.48.78,0,0-5.52,2.12-12.34-.2-6.78-2.32-11.18-3.73-18.39,4.16"/><path class="b" d="m47.2,64.22l.98-.48s-6.1-7.5-16.65-6.92c-10.6.58-9.87,3.05-15.53,2.66-.63-.05.48.78.48.78,0,0,5.51,2.12,12.34-.2,6.82-2.32,11.23-3.73,18.39,4.16"/></g><path class="b" d="m121.99,31.59c0,10.11-5.46,14.96-16.59,14.96s-16.65-4.85-16.65-14.96V9.22h11.23v19.86c0,3.73,0,8.38,5.47,8.38s5.31-4.65,5.31-8.38V9.22h11.23v22.36"/><polygon class="b" points="128.73 9.22 140.22 9.22 150.84 28.73 150.94 28.73 150.94 9.22 161.57 9.22 161.57 45.68 150.64 45.68 139.46 25.77 139.35 25.77 139.35 45.68 128.73 45.68 128.73 9.22"/><polygon class="b" points="168.46 9.22 179.7 9.22 179.7 21.88 190.22 21.88 190.22 9.22 201.45 9.22 201.45 45.68 190.22 45.68 190.22 31.23 179.7 31.23 179.7 45.68 168.46 45.68 168.46 9.22"/><path class="b" d="m230.2,22.81c-.2-1.33-1.23-5.36-5.88-5.36-5.26,0-6.94,5.1-6.94,10.01s1.68,10.01,6.94,10.01c3.78,0,5.26-2.66,5.93-6.08h11.03c0,7.35-5.98,15.17-16.65,15.17-11.8,0-18.49-8.32-18.49-19.1,0-11.49,7.25-19.1,18.49-19.1,10.01.05,15.53,5.31,16.49,14.45h-10.93"/><path class="b" d="m257.21,17.9h5.26c4.29,0,5.57,1.33,5.57,3.63,0,3.26-2.86,3.62-4.95,3.62h-5.87v-7.25Zm-11.23,27.78h11.23v-12.71h5.98c4.44,0,4.74,3.63,5.05,7.1.15,1.89.35,3.78.92,5.61h11.24c-1.03-1.68-1.07-6.02-1.23-7.81-.41-4.55-2.3-7.92-5.36-9.09,3.73-1.38,5.47-5.36,5.47-9.14,0-6.9-5.52-10.42-11.9-10.42h-21.4v36.46"/><g><path class="b" d="m91.45,51.8v9.96h5.96v2.26h-8.65v-12.22h2.69Z"/><path class="b" d="m99.12,51.8v2.62c.01.38-.04.73-.16,1.06-.12.33-.29.62-.51.87-.22.25-.48.46-.78.62-.3.17-.63.27-.98.32v-1.13c.43-.15.73-.37.89-.66.16-.29.24-.65.24-1.07h-1.13v-2.64h2.43Z"/><path class="b" d="m106.2,51.8l4.57,12.22h-2.79l-.92-2.72h-4.57l-.96,2.72h-2.7l4.62-12.22h2.76Zm.15,7.5l-1.54-4.49h-.03l-1.59,4.49h3.17Z"/><path class="b" d="m119.59,64.67c-.1.46-.31.88-.62,1.28-.32.39-.78.73-1.39,1-.6.27-1.42.41-2.43.41-.43,0-.88-.05-1.33-.16-.45-.11-.86-.28-1.23-.5-.37-.23-.68-.52-.92-.88-.24-.36-.39-.79-.42-1.29h2.41c.11.46.34.77.67.95.33.18.71.27,1.15.27.68,0,1.18-.21,1.5-.62.31-.41.46-.93.45-1.56v-1.16h-.03c-.26.47-.64.81-1.12,1.04-.49.22-1,.33-1.53.33-.66,0-1.23-.12-1.71-.35-.48-.23-.87-.55-1.18-.96-.31-.41-.53-.88-.68-1.42-.14-.54-.21-1.12-.21-1.72,0-.57.08-1.12.25-1.65.16-.53.41-1,.73-1.4.32-.4.72-.73,1.19-.97.47-.24,1.02-.36,1.63-.36.58,0,1.09.11,1.53.33.44.22.81.58,1.1,1.1h.03v-1.18h2.31v8.29c0,.35-.05.76-.15,1.22Zm-3.33-2.94c.26-.14.48-.32.65-.55.17-.23.3-.49.39-.78.09-.29.13-.6.13-.92,0-.36-.03-.71-.1-1.04-.07-.33-.18-.61-.34-.86-.16-.25-.37-.45-.63-.6-.26-.15-.59-.22-.99-.22-.34,0-.64.07-.88.21-.25.14-.45.32-.62.56-.17.23-.29.5-.36.8-.08.3-.11.62-.11.95s.03.64.09.95c.06.31.17.6.32.85.15.25.36.46.61.62.25.16.56.24.94.24.34,0,.64-.07.91-.21Z"/><path class="b" d="m124.2,61.9c.37.35.89.53,1.58.53.49,0,.91-.12,1.27-.37.35-.25.57-.51.65-.78h2.14c-.34,1.06-.87,1.82-1.57,2.28-.71.46-1.56.68-2.57.68-.7,0-1.32-.11-1.88-.33-.56-.22-1.03-.54-1.42-.95-.39-.41-.69-.9-.9-1.47-.21-.57-.32-1.2-.32-1.88s.11-1.28.32-1.85c.22-.57.52-1.06.92-1.48.4-.42.88-.74,1.43-.98.55-.24,1.17-.36,1.84-.36.75,0,1.41.15,1.97.44s1.02.68,1.38,1.17c.36.49.62,1.05.78,1.68.16.63.22,1.28.17,1.97h-6.39c.03.79.23,1.36.6,1.71Zm2.75-4.66c-.29-.32-.73-.48-1.33-.48-.39,0-.71.07-.97.2-.26.13-.46.29-.62.49-.15.19-.26.4-.32.62-.06.22-.1.41-.11.58h3.95c-.11-.62-.32-1.08-.61-1.4Z"/><path class="b" d="m133.68,55.17v1.23h.05c.31-.51.71-.89,1.2-1.12s.99-.35,1.51-.35c.65,0,1.18.09,1.6.27.42.18.74.42.98.74.24.31.41.7.51,1.15.1.45.15.95.15,1.5v5.44h-2.43v-5c0-.73-.12-1.28-.34-1.63-.23-.36-.63-.54-1.22-.54-.66,0-1.14.2-1.44.59-.3.39-.44,1.04-.44,1.94v4.64h-2.43v-8.85h2.31Z"/><path class="b" d="m145.6,56.76c-.39,0-.71.09-.98.27-.26.18-.48.4-.64.68-.16.28-.28.59-.35.92-.07.34-.1.67-.1,1s.03.64.1.98c.07.33.18.63.33.9.15.27.36.49.63.66.26.17.58.26.96.26.58,0,1.03-.16,1.34-.49.31-.33.51-.76.59-1.31h2.35c-.16,1.18-.62,2.07-1.37,2.69-.75.62-1.72.92-2.89.92-.66,0-1.27-.11-1.82-.33-.55-.22-1.03-.53-1.41-.93-.39-.4-.69-.88-.91-1.43-.22-.55-.32-1.16-.32-1.82s.1-1.32.3-1.91c.2-.59.49-1.1.88-1.52.39-.43.86-.76,1.42-1,.56-.24,1.2-.36,1.92-.36.52,0,1.03.07,1.51.21.48.14.92.35,1.3.63.38.28.69.63.93,1.04.24.42.38.91.41,1.48h-2.38c-.16-1.02-.76-1.52-1.8-1.52Z"/><path class="b" d="m153.79,61.9c.37.35.89.53,1.58.53.49,0,.91-.12,1.27-.37.35-.25.57-.51.65-.78h2.14c-.34,1.06-.87,1.82-1.57,2.28-.71.46-1.56.68-2.57.68-.7,0-1.32-.11-1.88-.33-.56-.22-1.03-.54-1.42-.95-.39-.41-.69-.9-.9-1.47-.21-.57-.32-1.2-.32-1.88s.11-1.28.32-1.85c.22-.57.52-1.06.92-1.48.4-.42.88-.74,1.43-.98.55-.24,1.17-.36,1.84-.36.75,0,1.41.15,1.97.44.56.29,1.02.68,1.38,1.17.36.49.62,1.05.78,1.68.16.63.22,1.28.17,1.97h-6.39c.03.79.23,1.36.6,1.71Zm2.75-4.66c-.29-.32-.73-.48-1.33-.48-.39,0-.71.07-.97.2-.26.13-.46.29-.62.49-.15.19-.26.4-.32.62-.06.22-.1.41-.11.58h3.95c-.11-.62-.32-1.08-.61-1.4Z"/><path class="b" d="m171.29,62.89c-.29.48-.66.82-1.12,1.04-.46.21-.98.32-1.57.32-.66,0-1.24-.13-1.75-.38-.5-.26-.92-.61-1.24-1.04-.32-.44-.57-.94-.74-1.52-.17-.57-.25-1.16-.25-1.78s.08-1.17.25-1.72c.16-.55.41-1.04.74-1.46.33-.42.73-.76,1.23-1.02.49-.26,1.06-.39,1.71-.39.52,0,1.03.11,1.5.33.47.22.85.55,1.12.98h.03v-4.45h2.43v12.22h-2.31v-1.13h-.03Zm-.1-4.37c-.07-.34-.19-.63-.35-.89-.16-.26-.38-.47-.64-.63-.26-.16-.59-.24-.99-.24s-.74.08-1.01.24c-.27.16-.49.37-.66.63-.17.26-.29.56-.36.9-.07.34-.11.69-.11,1.05,0,.34.04.68.12,1.03.08.34.21.65.39.92s.4.49.67.65c.27.17.59.25.97.25.4,0,.73-.08,1-.24.27-.16.48-.37.64-.64.16-.27.28-.57.34-.92.07-.34.1-.7.1-1.06s-.03-.72-.1-1.05Z"/><path class="b" d="m177.6,61.9c.37.35.89.53,1.58.53.49,0,.91-.12,1.27-.37.35-.25.57-.51.65-.78h2.14c-.34,1.06-.87,1.82-1.57,2.28-.71.46-1.56.68-2.57.68-.7,0-1.32-.11-1.88-.33-.56-.22-1.03-.54-1.42-.95-.39-.41-.69-.9-.9-1.47-.21-.57-.32-1.2-.32-1.88s.11-1.28.32-1.85c.22-.57.52-1.06.92-1.48.4-.42.88-.74,1.43-.98.55-.24,1.17-.36,1.84-.36.75,0,1.41.15,1.97.44s1.02.68,1.38,1.17c.36.49.62,1.05.78,1.68.16.63.22,1.28.17,1.97h-6.39c.03.79.23,1.36.6,1.71Zm2.75-4.66c-.29-.32-.73-.48-1.33-.48-.39,0-.71.07-.97.2-.26.13-.46.29-.62.49-.15.19-.26.4-.32.62-.06.22-.1.41-.11.58h3.95c-.11-.62-.32-1.08-.61-1.4Z"/><path class="b" d="m186.33,61.82c.11.19.25.34.42.46.17.12.37.21.59.27.22.06.45.09.69.09.17,0,.35-.02.54-.06.19-.04.36-.1.51-.19.15-.09.28-.2.39-.34.1-.14.15-.32.15-.54,0-.36-.24-.64-.73-.82-.48-.18-1.16-.36-2.03-.55-.35-.08-.7-.17-1.04-.28-.34-.11-.64-.25-.9-.43-.26-.18-.47-.4-.63-.67-.16-.27-.24-.6-.24-.98,0-.57.11-1.04.33-1.4.22-.37.52-.65.88-.86.37-.21.78-.36,1.23-.45.46-.09.92-.13,1.4-.13s.94.05,1.39.14c.45.09.85.25,1.21.46.35.22.65.51.88.86.23.36.37.81.42,1.36h-2.31c-.03-.47-.21-.78-.53-.95-.32-.17-.7-.25-1.13-.25-.14,0-.28,0-.44.03-.16.02-.31.05-.44.11-.13.06-.24.14-.33.25-.09.11-.14.25-.14.44,0,.22.08.39.24.53.16.14.37.25.63.33.26.09.55.16.88.23.33.07.67.14,1.01.22.35.08.7.18,1.04.29.34.11.64.27.9.45.26.19.47.42.63.7.16.28.24.62.24,1.04,0,.58-.12,1.07-.35,1.46-.23.39-.54.71-.92.95-.38.24-.81.41-1.29.5-.49.1-.98.15-1.48.15s-1.02-.05-1.51-.15c-.49-.1-.93-.27-1.31-.51-.38-.24-.7-.56-.94-.95-.25-.39-.38-.89-.4-1.48h2.31c0,.26.05.49.16.68Z"/><path class="b" d="m199.97,51.8l5.1,8.2h.03v-8.2h2.52v12.22h-2.69l-5.09-8.18h-.03v8.18h-2.52v-12.22h2.67Z"/><path class="b" d="m209.11,57.89c.03-.57.18-1.04.43-1.42.25-.38.57-.68.96-.91.39-.23.83-.39,1.31-.49.48-.1.97-.15,1.46-.15.44,0,.9.03,1.35.09.46.06.87.19,1.25.37.38.18.68.44.92.76.24.32.36.76.36,1.29v4.61c0,.4.02.78.07,1.15.04.37.12.64.24.82h-2.47c-.05-.14-.08-.28-.11-.42-.03-.14-.05-.29-.06-.44-.39.4-.84.68-1.37.84-.53.16-1.06.24-1.61.24-.42,0-.82-.05-1.18-.15-.37-.1-.68-.26-.96-.48s-.49-.49-.64-.82c-.15-.33-.23-.72-.23-1.18,0-.5.09-.92.27-1.24.18-.32.4-.58.68-.78.28-.19.6-.34.96-.44.36-.1.72-.17,1.09-.23.37-.06.72-.1,1.08-.14.35-.03.67-.09.94-.15.27-.07.49-.17.65-.3.16-.13.23-.32.22-.57,0-.26-.04-.47-.13-.62-.09-.15-.2-.27-.34-.36-.14-.09-.31-.14-.5-.17-.19-.03-.39-.04-.61-.04-.48,0-.86.1-1.13.31-.27.21-.43.55-.48,1.03h-2.43Zm5.62,1.8c-.1.09-.23.16-.39.21-.15.05-.32.09-.5.13-.18.03-.36.06-.56.09-.19.02-.39.05-.58.09-.18.03-.36.08-.54.14-.18.06-.33.13-.46.23-.13.1-.24.22-.32.37-.08.15-.12.34-.12.56s.04.4.12.55c.08.15.19.27.33.35.14.09.3.15.48.18.18.03.37.05.56.05.48,0,.85-.08,1.11-.24.26-.16.46-.35.58-.57.13-.22.2-.45.23-.68.03-.23.04-.41.04-.55v-.91Z"/><path class="b" d="m223.41,55.17v1.63h-1.78v4.38c0,.41.07.68.2.82s.41.21.82.21c.14,0,.27,0,.39-.02.13-.01.25-.03.36-.05v1.88c-.2.03-.43.06-.68.07-.25.01-.5.02-.74.02-.38,0-.73-.03-1.07-.08-.34-.05-.63-.15-.89-.3-.26-.15-.46-.36-.61-.63-.15-.27-.22-.63-.22-1.08v-5.22h-1.47v-1.63h1.47v-2.65h2.43v2.65h1.78Z"/><path class="b" d="m224.23,53.8v-2h2.43v2h-2.43Zm2.43,1.37v8.85h-2.43v-8.85h2.43Z"/><path class="b" d="m228.07,57.68c.22-.58.52-1.07.92-1.47.4-.4.88-.72,1.44-.94.56-.22,1.19-.33,1.88-.33s1.33.11,1.89.33c.56.22,1.05.54,1.45.94.4.41.71.9.92,1.47.22.58.32,1.22.32,1.93s-.11,1.35-.32,1.92c-.22.57-.53,1.06-.92,1.46-.4.4-.88.72-1.45.93-.56.22-1.2.33-1.89.33s-1.32-.11-1.88-.33c-.56-.22-1.04-.53-1.44-.93-.4-.41-.71-.89-.92-1.46-.22-.57-.32-1.21-.32-1.92s.11-1.35.32-1.93Zm2.21,2.96c.07.34.19.64.35.91.17.27.39.48.66.64.27.16.62.24,1.03.24s.76-.08,1.04-.24c.28-.16.5-.37.67-.64.16-.27.28-.57.35-.91.07-.34.1-.68.1-1.04s-.03-.7-.1-1.04c-.07-.34-.19-.64-.35-.91-.17-.26-.39-.48-.67-.64-.28-.16-.63-.25-1.04-.25s-.75.08-1.03.25c-.27.17-.49.38-.66.64-.16.26-.28.56-.35.91-.07.34-.1.69-.1,1.04s.03.7.1,1.04Z"/><path class="b" d="m240.24,55.17v1.23h.05c.31-.51.71-.89,1.2-1.12.49-.23.99-.35,1.51-.35.65,0,1.18.09,1.6.27.42.18.74.42.98.74.24.31.41.7.51,1.15.1.45.15.95.15,1.5v5.44h-2.43v-5c0-.73-.12-1.28-.34-1.63-.23-.36-.63-.54-1.22-.54-.66,0-1.14.2-1.44.59-.3.39-.44,1.04-.44,1.94v4.64h-2.43v-8.85h2.31Z"/><path class="b" d="m249.63,61.82c.11.19.25.34.42.46.17.12.37.21.59.27.22.06.45.09.69.09.17,0,.35-.02.54-.06.19-.04.36-.1.51-.19.15-.09.28-.2.39-.34.1-.14.15-.32.15-.54,0-.36-.24-.64-.73-.82-.48-.18-1.16-.36-2.03-.55-.35-.08-.7-.17-1.04-.28-.34-.11-.64-.25-.9-.43-.26-.18-.47-.4-.63-.67-.16-.27-.24-.6-.24-.98,0-.57.11-1.04.33-1.4.22-.37.52-.65.88-.86.37-.21.78-.36,1.23-.45.46-.09.92-.13,1.4-.13s.94.05,1.39.14c.45.09.85.25,1.21.46.35.22.65.51.88.86.23.36.37.81.42,1.36h-2.31c-.03-.47-.21-.78-.53-.95-.32-.17-.7-.25-1.13-.25-.14,0-.28,0-.44.03s-.31.05-.44.11c-.13.06-.24.14-.33.25-.09.11-.14.25-.14.44,0,.22.08.39.24.53.16.14.37.25.63.33.26.09.55.16.88.23.33.07.67.14,1.01.22.35.08.7.18,1.04.29.34.11.64.27.9.45.26.19.47.42.63.7.16.28.24.62.24,1.04,0,.58-.12,1.07-.35,1.46-.23.39-.54.71-.92.95-.38.24-.81.41-1.29.5-.49.1-.98.15-1.48.15s-1.02-.05-1.51-.15c-.49-.1-.93-.27-1.31-.51-.38-.24-.7-.56-.94-.95-.25-.39-.38-.89-.4-1.48h2.31c0,.26.05.49.16.68Z"/><path class="b" d="m269.58,63.09c-.92.8-2.2,1.21-3.84,1.21s-2.94-.4-3.84-1.2c-.91-.8-1.36-2.03-1.36-3.7v-7.6h2.69v7.6c0,.33.03.66.09.98.06.32.18.6.36.85.18.25.44.45.76.6.33.15.76.23,1.31.23.96,0,1.62-.21,1.99-.64.36-.43.55-1.1.55-2.01v-7.6h2.69v7.6c0,1.66-.46,2.88-1.39,3.69Z"/><path class="b" d="m274.79,55.17v1.23h.05c.31-.51.71-.89,1.2-1.12.49-.23.99-.35,1.51-.35.65,0,1.18.09,1.6.27.42.18.74.42.98.74.24.31.41.7.51,1.15.1.45.15.95.15,1.5v5.44h-2.43v-5c0-.73-.12-1.28-.34-1.63-.23-.36-.63-.54-1.22-.54-.66,0-1.14.2-1.44.59-.3.39-.44,1.04-.44,1.94v4.64h-2.43v-8.85h2.31Z"/><path class="b" d="m282.2,53.8v-2h2.43v2h-2.43Zm2.43,1.37v8.85h-2.43v-8.85h2.43Z"/><path class="b" d="m288.66,61.9c.37.35.89.53,1.58.53.49,0,.91-.12,1.27-.37.35-.25.57-.51.65-.78h2.14c-.34,1.06-.87,1.82-1.57,2.28-.71.46-1.56.68-2.57.68-.7,0-1.32-.11-1.88-.33-.56-.22-1.03-.54-1.42-.95-.39-.41-.69-.9-.9-1.47-.21-.57-.32-1.2-.32-1.88s.11-1.28.32-1.85c.22-.57.52-1.06.92-1.48.4-.42.88-.74,1.43-.98.55-.24,1.17-.36,1.84-.36.75,0,1.41.15,1.97.44s1.02.68,1.38,1.17c.36.49.62,1.05.78,1.68.16.63.22,1.28.17,1.97h-6.39c.03.79.23,1.36.6,1.71Zm2.75-4.66c-.29-.32-.73-.48-1.33-.48-.39,0-.71.07-.97.2-.26.13-.46.29-.62.49-.15.19-.26.4-.32.62-.06.22-.1.41-.11.58h3.95c-.11-.62-.32-1.08-.61-1.4Z"/><path class="b" d="m297.39,61.82c.11.19.25.34.42.46.17.12.37.21.59.27.22.06.45.09.69.09.17,0,.35-.02.54-.06.19-.04.36-.1.51-.19.15-.09.28-.2.39-.34.1-.14.15-.32.15-.54,0-.36-.24-.64-.73-.82-.48-.18-1.16-.36-2.03-.55-.35-.08-.7-.17-1.04-.28-.34-.11-.64-.25-.9-.43-.26-.18-.47-.4-.63-.67-.16-.27-.24-.6-.24-.98,0-.57.11-1.04.33-1.4.22-.37.52-.65.88-.86.37-.21.78-.36,1.23-.45.46-.09.92-.13,1.4-.13s.94.05,1.39.14c.45.09.85.25,1.21.46.35.22.65.51.88.86.23.36.37.81.42,1.36h-2.31c-.03-.47-.21-.78-.53-.95-.32-.17-.7-.25-1.13-.25-.14,0-.28,0-.44.03-.16.02-.31.05-.44.11-.13.06-.24.14-.33.25-.09.11-.14.25-.14.44,0,.22.08.39.24.53.16.14.37.25.63.33.26.09.55.16.88.23.33.07.67.14,1.01.22.35.08.7.18,1.04.29.34.11.64.27.9.45.26.19.47.42.63.7.16.28.24.62.24,1.04,0,.58-.12,1.07-.35,1.46-.23.39-.54.71-.92.95-.38.24-.81.41-1.29.5-.49.1-.98.15-1.48.15s-1.02-.05-1.51-.15c-.49-.1-.93-.27-1.31-.51-.38-.24-.7-.56-.94-.95-.25-.39-.38-.89-.4-1.48h2.31c0,.26.05.49.16.68Z"/><path class="b" d="m310.41,55.17v1.13h.03c.3-.48.67-.83,1.13-1.04.46-.22.96-.33,1.51-.33.7,0,1.3.13,1.8.39.5.26.92.61,1.25,1.04.33.43.58.94.74,1.51.16.58.24,1.18.24,1.81,0,.59-.08,1.16-.24,1.71-.16.55-.4,1.03-.73,1.46-.33.42-.73.76-1.22,1.01-.49.25-1.05.38-1.7.38-.55,0-1.05-.11-1.51-.33-.46-.22-.84-.55-1.14-.98h-.03v4.19h-2.43v-11.95h2.31Zm3.16,7.02c.27-.16.48-.37.65-.63.16-.26.28-.56.35-.9.07-.34.1-.69.1-1.04s-.04-.7-.11-1.04c-.07-.34-.2-.65-.37-.92-.17-.27-.39-.48-.66-.65-.27-.16-.6-.25-.98-.25s-.73.08-1,.25c-.27.17-.49.38-.65.64-.17.26-.28.56-.35.91-.07.34-.1.7-.1,1.06s.04.7.11,1.04c.07.34.19.64.36.9.16.26.39.47.66.63s.6.24.99.24.73-.08,1-.24Z"/><path class="b" d="m318.07,57.68c.22-.58.52-1.07.92-1.47.4-.4.88-.72,1.44-.94.56-.22,1.19-.33,1.88-.33s1.33.11,1.89.33c.56.22,1.05.54,1.45.94.4.41.71.9.92,1.47.22.58.32,1.22.32,1.93s-.11,1.35-.32,1.92c-.22.57-.53,1.06-.92,1.46-.4.4-.88.72-1.45.93-.56.22-1.2.33-1.89.33s-1.32-.11-1.88-.33c-.56-.22-1.04-.53-1.44-.93-.4-.41-.71-.89-.92-1.46-.22-.57-.32-1.21-.32-1.92s.11-1.35.32-1.93Zm2.21,2.96c.07.34.19.64.35.91.17.27.39.48.66.64s.62.24,1.03.24.76-.08,1.04-.24c.28-.16.5-.37.67-.64.16-.27.28-.57.35-.91.07-.34.1-.68.1-1.04s-.03-.7-.1-1.04c-.07-.34-.19-.64-.35-.91-.17-.26-.39-.48-.67-.64-.28-.16-.63-.25-1.04-.25s-.75.08-1.03.25c-.27.17-.49.38-.66.64-.16.26-.28.56-.35.91-.07.34-.1.69-.1,1.04s.03.7.1,1.04Z"/><path class="b" d="m333.9,64.02v-1.23h-.05c-.31.51-.71.88-1.2,1.11-.49.23-.99.34-1.51.34-.65,0-1.18-.09-1.6-.26-.42-.17-.74-.41-.98-.73-.24-.31-.41-.7-.51-1.15-.1-.45-.15-.95-.15-1.5v-5.44h2.43v5c0,.73.11,1.28.34,1.63.23.36.63.54,1.22.54.66,0,1.14-.2,1.44-.59.3-.39.45-1.04.45-1.94v-4.64h2.43v8.85h-2.31Z"/><path class="b" d="m339.91,55.17v1.64h.03c.11-.27.27-.53.46-.76.19-.23.42-.43.67-.6.25-.17.52-.29.8-.39.28-.09.58-.14.89-.14.16,0,.34.03.53.09v2.26c-.11-.02-.25-.04-.41-.06-.16-.02-.31-.03-.46-.03-.44,0-.82.07-1.13.22-.31.15-.56.35-.74.61-.19.26-.32.56-.4.9-.08.34-.12.71-.12,1.11v3.99h-2.43v-8.85h2.31Z"/><path class="b" d="m350.32,51.8v12.22h-2.43v-12.22h2.43Z"/><path class="b" d="m354.35,61.9c.37.35.89.53,1.58.53.49,0,.91-.12,1.27-.37.35-.25.57-.51.65-.78h2.14c-.34,1.06-.87,1.82-1.57,2.28-.71.46-1.56.68-2.57.68-.7,0-1.32-.11-1.88-.33-.56-.22-1.03-.54-1.42-.95-.39-.41-.69-.9-.9-1.47-.21-.57-.32-1.2-.32-1.88s.11-1.28.32-1.85c.22-.57.52-1.06.92-1.48.4-.42.88-.74,1.43-.98.55-.24,1.17-.36,1.84-.36.75,0,1.41.15,1.97.44s1.02.68,1.38,1.17c.36.49.62,1.05.78,1.68.16.63.22,1.28.17,1.97h-6.39c.03.79.23,1.36.6,1.71Zm2.75-4.66c-.29-.32-.73-.48-1.33-.48-.39,0-.71.07-.97.2-.26.13-.46.29-.62.49-.15.19-.26.4-.32.62-.06.22-.1.41-.11.58h3.95c-.11-.62-.32-1.08-.61-1.4Z"/><path class="b" d="m363.08,61.82c.11.19.25.34.42.46.17.12.37.21.59.27.22.06.45.09.69.09.17,0,.35-.02.54-.06.19-.04.36-.1.51-.19.15-.09.28-.2.39-.34.1-.14.15-.32.15-.54,0-.36-.24-.64-.73-.82-.48-.18-1.16-.36-2.03-.55-.35-.08-.7-.17-1.04-.28-.34-.11-.64-.25-.9-.43-.26-.18-.47-.4-.63-.67-.16-.27-.24-.6-.24-.98,0-.57.11-1.04.33-1.4.22-.37.52-.65.88-.86.37-.21.78-.36,1.23-.45.46-.09.92-.13,1.4-.13s.94.05,1.39.14c.45.09.85.25,1.21.46.35.22.65.51.88.86.23.36.37.81.42,1.36h-2.31c-.03-.47-.21-.78-.53-.95-.32-.17-.7-.25-1.13-.25-.14,0-.28,0-.44.03s-.31.05-.44.11-.24.14-.33.25c-.09.11-.14.25-.14.44,0,.22.08.39.24.53.16.14.37.25.63.33.26.09.55.16.88.23.33.07.67.14,1.01.22.35.08.7.18,1.04.29.34.11.64.27.9.45.26.19.47.42.63.7.16.28.24.62.24,1.04,0,.58-.12,1.07-.35,1.46-.23.39-.54.71-.92.95-.38.24-.81.41-1.29.5-.49.1-.98.15-1.48.15s-1.02-.05-1.51-.15c-.49-.1-.93-.27-1.31-.51-.38-.24-.7-.56-.94-.95-.25-.39-.38-.89-.4-1.48h2.31c0,.26.05.49.16.68Z"/><path class="b" d="m376.1,55.17v1.64h.03c.11-.27.27-.53.46-.76.19-.23.42-.43.67-.6.25-.17.52-.29.8-.39.28-.09.58-.14.89-.14.16,0,.34.03.53.09v2.26c-.11-.02-.25-.04-.41-.06-.16-.02-.31-.03-.46-.03-.44,0-.82.07-1.13.22-.31.15-.56.35-.74.61-.19.26-.32.56-.4.9s-.12.71-.12,1.11v3.99h-2.43v-8.85h2.31Z"/><path class="b" d="m382.63,61.9c.37.35.89.53,1.58.53.49,0,.91-.12,1.27-.37.35-.25.57-.51.65-.78h2.14c-.34,1.06-.87,1.82-1.57,2.28-.71.46-1.56.68-2.57.68-.7,0-1.32-.11-1.88-.33-.56-.22-1.03-.54-1.42-.95-.39-.41-.69-.9-.9-1.47-.21-.57-.32-1.2-.32-1.88s.11-1.28.32-1.85c.22-.57.52-1.06.92-1.48.4-.42.88-.74,1.43-.98.55-.24,1.17-.36,1.84-.36.75,0,1.41.15,1.97.44s1.02.68,1.38,1.17c.36.49.62,1.05.78,1.68.16.63.22,1.28.17,1.97h-6.39c.03.79.23,1.36.6,1.71Zm2.75-4.66c-.29-.32-.73-.48-1.33-.48-.39,0-.71.07-.97.2-.26.13-.46.29-.62.49-.15.19-.26.4-.32.62-.06.22-.1.41-.11.58h3.95c-.11-.62-.32-1.08-.61-1.4Zm-.83-6.66l-1.82,3.03h1.7l2.79-3.03h-2.67Z"/><path class="b" d="m388.39,56.8v-1.63h1.46v-.68c0-.79.24-1.43.74-1.93s1.23-.75,2.23-.75c.22,0,.43,0,.65.03.22.02.43.03.63.04v1.81c-.29-.03-.58-.05-.89-.05-.33,0-.57.08-.71.23-.14.15-.21.41-.21.78v.53h1.68v1.63h-1.68v7.23h-2.43v-7.23h-1.46Z"/><path class="b" d="m400.53,64.02v-1.23h-.05c-.31.51-.71.88-1.2,1.11-.49.23-.99.34-1.51.34-.65,0-1.18-.09-1.6-.26-.42-.17-.74-.41-.98-.73-.24-.31-.41-.7-.51-1.15-.1-.45-.15-.95-.15-1.5v-5.44h2.43v5c0,.73.11,1.28.34,1.63.23.36.63.54,1.22.54.66,0,1.14-.2,1.44-.59.3-.39.45-1.04.45-1.94v-4.64h2.43v8.85h-2.31Z"/><path class="b" d="m412.54,64.67c-.1.46-.31.88-.62,1.28-.32.39-.78.73-1.39,1-.6.27-1.42.41-2.43.41-.43,0-.88-.05-1.33-.16s-.86-.28-1.23-.5c-.37-.23-.68-.52-.92-.88-.24-.36-.39-.79-.42-1.29h2.41c.11.46.34.77.67.95.33.18.71.27,1.15.27.68,0,1.18-.21,1.5-.62.31-.41.46-.93.45-1.56v-1.16h-.03c-.26.47-.64.81-1.12,1.04-.49.22-1,.33-1.53.33-.66,0-1.23-.12-1.71-.35-.48-.23-.87-.55-1.18-.96-.31-.41-.53-.88-.68-1.42-.14-.54-.21-1.12-.21-1.72,0-.57.08-1.12.25-1.65.16-.53.41-1,.73-1.4.32-.4.72-.73,1.19-.97.47-.24,1.02-.36,1.63-.36.58,0,1.09.11,1.53.33.44.22.81.58,1.1,1.1h.03v-1.18h2.31v8.29c0,.35-.05.76-.15,1.22Zm-3.33-2.94c.26-.14.48-.32.65-.55.17-.23.3-.49.39-.78.09-.29.13-.6.13-.92,0-.36-.03-.71-.1-1.04-.07-.33-.18-.61-.34-.86-.16-.25-.37-.45-.63-.6-.26-.15-.59-.22-.99-.22-.34,0-.64.07-.88.21-.25.14-.45.32-.62.56-.17.23-.29.5-.36.8-.08.3-.11.62-.11.95s.03.64.09.95c.06.31.17.6.32.85.15.25.36.46.61.62.25.16.56.24.94.24.34,0,.64-.07.91-.21Z"/><path class="b" d="m414.15,53.8v-2h2.43v2h-2.43Zm2.43,1.37v8.85h-2.43v-8.85h2.43Z"/><path class="b" d="m420.61,61.9c.37.35.89.53,1.58.53.49,0,.91-.12,1.27-.37.35-.25.57-.51.65-.78h2.14c-.34,1.06-.87,1.82-1.57,2.28-.71.46-1.56.68-2.57.68-.7,0-1.32-.11-1.88-.33-.56-.22-1.03-.54-1.42-.95-.39-.41-.69-.9-.9-1.47-.21-.57-.32-1.2-.32-1.88s.11-1.28.32-1.85c.22-.57.52-1.06.92-1.48.4-.42.88-.74,1.43-.98.55-.24,1.17-.36,1.84-.36.75,0,1.41.15,1.97.44s1.02.68,1.38,1.17c.36.49.62,1.05.78,1.68.16.63.22,1.28.17,1.97h-6.39c.03.79.23,1.36.6,1.71Zm2.75-4.66c-.29-.32-.73-.48-1.33-.48-.39,0-.71.07-.97.2-.26.13-.46.29-.62.49-.15.19-.26.4-.32.62-.06.22-.1.41-.11.58h3.95c-.11-.62-.32-1.08-.61-1.4Zm-.83-6.66l-1.82,3.03h1.7l2.79-3.03h-2.67Z"/><path class="b" d="m429.34,61.82c.11.19.25.34.42.46.17.12.37.21.59.27.22.06.45.09.69.09.17,0,.35-.02.54-.06.19-.04.36-.1.51-.19.15-.09.28-.2.39-.34.1-.14.15-.32.15-.54,0-.36-.24-.64-.73-.82-.48-.18-1.16-.36-2.03-.55-.35-.08-.7-.17-1.04-.28-.34-.11-.64-.25-.9-.43-.26-.18-.47-.4-.63-.67-.16-.27-.24-.6-.24-.98,0-.57.11-1.04.33-1.4.22-.37.52-.65.88-.86.37-.21.78-.36,1.23-.45.46-.09.92-.13,1.4-.13s.94.05,1.39.14c.45.09.85.25,1.21.46.35.22.65.51.88.86.23.36.37.81.42,1.36h-2.31c-.03-.47-.21-.78-.53-.95-.32-.17-.7-.25-1.13-.25-.14,0-.28,0-.44.03s-.31.05-.44.11c-.13.06-.24.14-.33.25-.09.11-.14.25-.14.44,0,.22.08.39.24.53.16.14.37.25.63.33.26.09.55.16.88.23.33.07.67.14,1.01.22.35.08.7.18,1.04.29.34.11.64.27.9.45.26.19.47.42.63.7.16.28.24.62.24,1.04,0,.58-.12,1.07-.35,1.46-.23.39-.54.71-.92.95-.38.24-.81.41-1.29.5-.49.1-.98.15-1.48.15s-1.02-.05-1.51-.15c-.49-.1-.93-.27-1.31-.51-.38-.24-.7-.56-.94-.95-.25-.39-.38-.89-.4-1.48h2.31c0,.26.05.49.16.68Z"/></g></svg>